HIERARCHY
ROOT hip
{
	OFFSET 0.000000 0.000000 0.000000
	CHANNELS 6 Xposition Yposition Zposition Zrotation Yrotation Xrotation 
	JOINT lhipjoint
	{
		OFFSET 0.000000 0.000000 0.000000
		CHANNELS 3 Zrotation Yrotation Xrotation
		JOINT lfemur
		{
			OFFSET 1.363060 -1.794630 0.839290
			CHANNELS 3 Zrotation Yrotation Xrotation
			JOINT ltibia
			{
				OFFSET 2.448110 -6.726130 0.000000
				CHANNELS 3 Zrotation Yrotation Xrotation
				JOINT lfoot
				{
					OFFSET 2.562200 -7.039590 0.000000
					CHANNELS 3 Zrotation Yrotation Xrotation
					JOINT ltoes
					{
						OFFSET 0.157640 -0.433110 2.322550
						CHANNELS 3 Zrotation Yrotation Xrotation
						End Site
						{
							OFFSET 0.000000 0.000000 0.000000
						}
					}
				}
			}
		}
	}
	JOINT rhipjoint
	{
		OFFSET 0.000000 0.000000 0.000000
		CHANNELS 3 Zrotation Yrotation Xrotation
		JOINT rfemur
		{
			OFFSET -1.305520 -1.794630 0.839290
			CHANNELS 3 Zrotation Yrotation Xrotation
			JOINT rtibia
			{
				OFFSET -2.542530 -6.985550 0.000000
				CHANNELS 3 Zrotation Yrotation Xrotation
				JOINT rfoot
				{
					OFFSET -2.568260 -7.056230 0.000000
					CHANNELS 3 Zrotation Yrotation Xrotation
					JOINT rtoes
					{
						OFFSET -0.164730 -0.452590 2.363150
						CHANNELS 3 Zrotation Yrotation Xrotation
						End Site
						{
							OFFSET 0.000000 0.000000 0.000000
						}
					}
				}
			}
		}
	}
	JOINT lowerback
	{
		OFFSET 0.000000 0.000000 0.000000
		CHANNELS 3 Zrotation Yrotation Xrotation
		JOINT upperback
		{
			OFFSET 0.028270 2.035590 -0.193380
			CHANNELS 3 Zrotation Yrotation Xrotation
			JOINT thorax
			{
				OFFSET 0.056720 2.048850 -0.042750
				CHANNELS 3 Zrotation Yrotation Xrotation
				JOINT lowerneck
				{
					OFFSET 0.000000 0.000000 0.000000
					CHANNELS 3 Zrotation Yrotation Xrotation
					JOINT upperneck
					{
						OFFSET -0.054170 1.746240 0.172020
						CHANNELS 3 Zrotation Yrotation Xrotation
						JOINT head
						{
							OFFSET 0.104070 1.761360 -0.123970
							CHANNELS 3 Zrotation Yrotation Xrotation
							End Site
							{
								OFFSET 0.000000 0.000000 0.000000
							}
						}
					}
				}
				JOINT lclavicle
				{
					OFFSET 0.000000 0.000000 0.000000
					CHANNELS 3 Zrotation Yrotation Xrotation
					JOINT lhumerus
					{
						OFFSET 3.362410 1.200890 -0.311210
						CHANNELS 3 Zrotation Yrotation Xrotation
						JOINT lradius
						{
							OFFSET 4.983000 -0.000000 -0.000000
							CHANNELS 3 Zrotation Yrotation Xrotation
							JOINT lwrist
							{
								OFFSET 3.483560 -0.000000 -0.000000
								CHANNELS 3 Zrotation Yrotation Xrotation
								JOINT lhand
								{
									OFFSET 0.000000 0.000000 0.000000
									CHANNELS 3 Zrotation Yrotation Xrotation
									JOINT lfingers
									{
										OFFSET 0.715260 -0.000000 -0.000000
										CHANNELS 3 Zrotation Yrotation Xrotation
										End Site
										{
											OFFSET 0.000000 0.000000 0.000000
										}
									}
								}
								JOINT lthumb
								{
									OFFSET 0.000000 0.000000 0.000000
									CHANNELS 3 Zrotation Yrotation Xrotation
									End Site
									{
										OFFSET 0.000000 0.000000 0.000000
									}
								}
							}
						}
					}
				}
				JOINT rclavicle
				{
					OFFSET 0.000000 0.000000 0.000000
					CHANNELS 3 Zrotation Yrotation Xrotation
					JOINT rhumerus
					{
						OFFSET -3.136600 1.374050 -0.404650
						CHANNELS 3 Zrotation Yrotation Xrotation
						JOINT rradius
						{
							OFFSET -5.241900 -0.000000 -0.000000
							CHANNELS 3 Zrotation Yrotation Xrotation
							JOINT rwrist
							{
								OFFSET -3.444170 -0.000000 -0.000000
								CHANNELS 3 Zrotation Yrotation Xrotation
								JOINT rhand
								{
									OFFSET 0.000000 0.000000 0.000000
									CHANNELS 3 Zrotation Yrotation Xrotation
									JOINT rfingers
									{
										OFFSET -0.622530 -0.000000 -0.000000
										CHANNELS 3 Zrotation Yrotation Xrotation
										End Site
										{
											OFFSET 0.000000 0.000000 0.000000
										}
									}
								}
								JOINT rthumb
								{
									OFFSET 0.000000 0.000000 0.000000
									CHANNELS 3 Zrotation Yrotation Xrotation
									End Site
									{
										OFFSET 0.000000 0.000000 0.000000
									}
								}
							}
						}
					}
				}
			}
		}
	}
}
MOTION
Frames: 10
Frame Time: 0.008333
-0.199018 15.893692 3.599045 -169.901895 -11.441916 166.561114 8.488433 2.252512 -1.433431 -20.189692 2.961184 -5.630333 9.958643 16.700458 57.795351 2.339414 -1.696399 -10.366441 1.529700 -7.808800 -22.134700 -13.073995 -3.771073 -3.420018 42.507769 -4.229399 -2.435591 -9.888826 -16.935875 58.635325 -5.075793 14.278658 -7.474061 -0.188600 -2.796700 7.713200 3.333274 -2.196501 21.383170 0.943912 -2.594541 -2.542975 2.726916 -0.901892 -4.033803 -4.388144 -8.339796 -6.893486 8.647441 -12.796266 -0.907285 5.076300 -6.057500 -2.968500 1.694970 -7.126005 3.059982 -90.336324 13.516713 -18.024233 6.949808 -32.133950 -6.548254 -0.011550 6.454427 -60.205940 65.303805 20.897611 27.244400 -7.125000 0.000000 0.000000 38.121900 57.592300 13.000500 -1.085780 8.530457 5.638101 76.088768 -11.636407 -36.140991 -30.524417 38.288744 -13.765458 1.600968 -4.334562 -100.788912 -64.684212 4.532086 -12.918000 7.125000 0.000000 0.000000 -22.542000 -15.684100 -16.996300 
-0.207775 15.861750 3.594368 -170.090669 -11.384633 166.265770 8.457271 2.261700 -1.478442 -19.722579 4.241828 -5.813717 10.051791 16.748676 58.079210 2.984536 -3.518871 -9.883385 1.230300 -7.034400 -19.817400 -13.045073 -3.742315 -3.465335 42.395868 -4.149992 -1.815974 -9.859825 -16.877450 58.454187 -5.099128 14.140921 -8.115854 -0.206600 -2.926900 8.075200 3.265855 -2.244334 21.688176 0.925774 -2.680101 -2.537846 2.695179 -0.940463 -4.059970 -4.561410 -8.271171 -6.994339 8.651759 -12.705769 -1.031701 5.157100 -5.994700 -2.962400 1.643413 -7.127514 3.049551 -90.352584 13.406298 -19.177153 6.994575 -31.764328 -6.510435 -0.009756 6.538753 -59.767197 66.864535 22.430840 30.790700 -7.125000 0.000000 0.000000 42.650200 60.281000 17.768700 -1.121294 8.546825 5.666820 75.290276 -11.828578 -36.189641 -29.659136 37.491233 -13.282034 1.471725 -4.329549 -100.605573 -65.316401 5.480321 -14.779300 7.125000 0.000000 0.000000 -22.603500 -13.800200 -18.052700 
-0.217427 15.883045 3.589194 -170.315219 -11.381030 166.134806 8.425797 2.261791 -1.512488 -19.354625 5.495206 -5.906115 9.975091 16.700579 57.859143 3.410782 -4.876512 -8.882981 1.007000 -6.385200 -17.906100 -13.020998 -3.712910 -3.509483 42.279844 -4.014880 -1.174841 -9.681722 -16.730515 57.815186 -5.038318 13.827725 -8.277451 -0.218700 -3.010300 8.307500 3.156561 -2.299588 21.781348 0.908294 -2.788887 -2.541383 2.624554 -0.984596 -4.061054 -4.657149 -8.197910 -7.098115 8.610297 -12.595110 -1.101853 5.177800 -5.930100 -2.949100 1.563465 -7.095324 3.037477 -90.111375 13.240589 -20.756768 7.254280 -31.361025 -6.517050 0.066898 6.522899 -58.938795 68.123307 23.388893 33.523600 -7.125000 0.000000 0.000000 46.701500 62.096700 21.924600 -1.122319 8.534049 5.675664 74.403217 -11.871334 -36.603738 -29.076229 36.840730 -12.938572 1.326431 -4.294964 -100.002968 -65.698349 6.321330 -16.365700 7.125000 0.000000 0.000000 -22.583400 -12.187200 -18.872500 
-0.228373 15.955288 3.583721 -170.556585 -11.439352 166.160168 8.386056 2.255193 -1.533878 -19.004859 6.812402 -5.988652 9.723069 16.555032 57.135879 3.663674 -5.876098 -7.275063 0.859700 -5.912500 -16.530900 -13.004191 -3.684055 -3.551232 42.167971 -3.836286 -0.536262 -9.368099 -16.498692 56.752501 -4.907314 13.412830 -7.940973 -0.221800 -3.031900 8.367600 3.032414 -2.374096 21.685953 0.897749 -2.923705 -2.553600 2.597228 -1.039987 -4.024635 -4.774768 -8.126298 -7.259434 8.531768 -12.468632 -1.121528 5.164200 -5.858100 -2.894100 1.452630 -7.042222 3.013430 -89.614906 13.024228 -22.391852 7.642035 -30.985320 -6.554525 0.194635 6.410153 -57.876872 68.918155 23.733467 35.126700 -7.125000 0.000000 0.000000 49.386600 62.977800 24.534000 -1.082867 8.490970 5.669711 73.318681 -11.885530 -37.079297 -28.698163 36.325898 -12.694011 1.206058 -4.218593 -99.334375 -65.727258 7.000063 -17.484800 7.125000 0.000000 0.000000 -22.445900 -11.012500 -19.331700 
-0.240713 16.075993 3.574964 -170.852891 -11.485438 166.297448 8.349372 2.236857 -1.542561 -18.818123 8.026784 -5.923513 9.304806 16.305058 55.915625 3.712489 -6.339304 -5.267291 0.776600 -5.626600 -15.704700 -12.993006 -3.649628 -3.598439 42.035420 -3.593683 0.180956 -8.937367 -16.177577 55.307713 -4.685993 12.773333 -7.131785 -0.204800 -2.913800 8.038900 2.846148 -2.427409 21.438367 0.887183 -3.045348 -2.571460 2.553492 -1.085221 -3.951966 -4.847253 -8.049913 -7.467597 8.419665 -12.317961 -1.070958 5.100900 -5.780700 -2.797200 1.294604 -6.972969 2.976582 -88.726195 12.803212 -23.847092 8.081541 -30.619195 -6.602108 0.346822 6.165132 -56.841846 69.063463 23.255717 35.086000 -7.125000 0.000000 0.000000 49.596400 62.691200 24.338600 -0.996763 8.431879 5.658900 72.147729 -12.016308 -37.382573 -28.518165 36.005274 -12.562085 1.136740 -4.116851 -98.815573 -65.508264 7.377057 -17.957700 7.125000 0.000000 0.000000 -22.279800 -10.477600 -19.428000 
-0.256534 16.240382 3.563719 -171.158746 -11.549798 166.536025 8.314851 2.208934 -1.537968 -18.782653 9.055236 -5.753659 8.749783 15.956664 54.257460 3.583874 -6.271090 -2.896024 0.779500 -5.636900 -15.734400 -12.987910 -3.611549 -3.653681 41.895843 -3.323350 0.941527 -8.415206 -15.775302 53.548440 -4.389476 11.965850 -5.791160 -0.185000 -2.770500 7.640500 2.685820 -2.486554 21.020313 0.879519 -3.173766 -2.588432 2.479529 -1.136414 -3.765634 -4.886081 -7.970102 -7.829519 8.282670 -12.150312 -0.957992 4.997800 -5.699100 -2.625600 1.086673 -6.866655 2.925117 -87.445516 12.573778 -24.881502 8.474449 -30.269331 -6.636449 0.488291 5.808952 -55.899115 68.549498 22.132840 33.533000 -7.125000 0.000000 0.000000 47.514900 61.409800 21.634800 -0.869622 8.332468 5.637487 70.800542 -12.179336 -37.466660 -28.418658 35.800858 -12.482828 1.113888 -3.993655 -98.520983 -65.071680 7.511795 -17.892500 7.125000 0.000000 0.000000 -22.080400 -10.473300 -19.224700 
-0.279123 16.438803 3.549091 -171.470307 -11.636153 166.833160 8.281086 2.172682 -1.521049 -18.873581 9.910233 -5.457710 8.088875 15.511155 52.213800 3.375593 -5.903185 -0.229723 0.831100 -5.815900 -16.251100 -12.984042 -3.569022 -3.711512 41.738718 -3.013005 1.761595 -7.845792 -15.307180 51.586545 -4.034835 10.974538 -4.036566 -0.150100 -2.496300 6.879400 2.591294 -2.568675 20.468226 0.871850 -3.320864 -2.611729 2.306925 -1.194646 -3.551493 -4.833103 -7.884927 -8.243018 8.092942 -11.947823 -0.756530 4.829600 -5.608400 -2.400100 0.823003 -6.757711 2.859212 -85.791848 12.462032 -25.484560 8.796316 -29.925828 -6.650131 0.604170 5.356222 -55.092827 67.445245 20.375150 30.533200 -7.125000 0.000000 0.000000 43.686200 59.050700 16.989600 -0.697327 8.235472 5.616377 69.342278 -12.514554 -37.257643 -28.451750 35.761490 -12.497060 1.131074 -3.856723 -98.406391 -64.500249 7.389008 -17.347400 7.125000 0.000000 0.000000 -21.889400 -10.960800 -18.791800 
-0.307782 16.657822 3.528294 -171.809509 -11.760869 167.178551 8.242740 2.128226 -1.497602 -19.076056 10.634296 -5.031434 7.354928 14.976781 49.862462 3.105016 -5.240888 2.844639 0.904300 -6.060100 -16.959000 -12.974194 -3.521385 -3.777692 41.499411 -2.723424 2.573873 -7.277340 -14.803437 49.573841 -3.639313 9.832105 -1.775358 -0.120000 -2.232900 6.149800 2.508417 -2.655122 19.718921 0.864906 -3.479149 -2.629761 2.095874 -1.261210 -3.197104 -4.716960 -7.799518 -8.772665 7.877304 -11.739863 -0.479253 4.622200 -5.519300 -2.121400 0.531319 -6.599600 2.789537 -83.849207 12.289240 -25.860683 8.963222 -29.480043 -6.604587 0.704184 4.854228 -54.085529 65.916841 18.292225 26.703300 -7.125000 0.000000 0.000000 39.331100 55.967800 11.883200 -0.489088 8.086352 5.587590 67.693940 -12.841470 -37.004793 -28.568033 35.819689 -12.560555 1.151569 -3.705215 -98.337826 -63.925790 7.179411 -16.667100 7.125000 0.000000 0.000000 -21.733800 -11.603600 -18.322700 
-0.337933 16.888783 3.504312 -172.146019 -11.951110 167.533507 8.193602 2.078003 -1.466722 -19.318999 11.157405 -4.466670 6.588744 14.368495 47.302699 2.813455 -4.334051 6.400076 0.939400 -6.173500 -17.288700 -12.959224 -3.468799 -3.842964 41.238564 -2.415732 3.345130 -6.758024 -14.305245 47.667803 -3.217893 8.483811 0.837498 -0.091000 -1.946000 5.356400 2.403091 -2.758104 18.856777 0.862060 -3.663797 -2.645105 1.903881 -1.343695 -2.774433 -4.594092 -7.708936 -9.321050 7.653577 -11.523972 -0.153047 4.407400 -5.426000 -1.828000 0.205698 -6.418131 2.721068 -81.640652 12.137283 -25.906326 9.034016 -29.036086 -6.532438 0.764389 4.340625 -52.977864 64.265834 16.178417 22.811800 -7.125000 0.000000 0.000000 35.473600 52.677300 7.460000 -0.245657 7.905295 5.559795 65.869956 -13.187004 -36.715641 -28.810963 35.996043 -12.693870 1.162419 -3.540880 -98.198385 -63.426158 6.909498 -15.949800 7.125000 0.000000 0.000000 -21.649300 -12.313600 -17.892900 
-0.364601 17.126311 3.485505 -172.582901 -12.243779 168.008152 8.141729 2.030688 -1.425028 -19.710671 11.461291 -3.978486 5.837917 13.723447 44.663438 2.552320 -3.250239 10.304670 1.001000 -6.366800 -17.852400 -12.937733 -3.420681 -3.880885 40.883885 -1.975260 3.881531 -6.330914 -13.857095 46.001300 -2.805630 6.991682 3.641051 -0.058500 -1.561000 4.293900 2.171354 -2.858811 17.893905 0.855189 -3.867055 -2.665507 1.709598 -1.433572 -2.325246 -4.478095 -7.638530 -9.893847 7.291793 -11.331722 0.320129 4.509600 -5.345300 -1.634600 -0.160374 -6.226977 2.640755 -79.098665 11.988833 -25.525638 9.074505 -28.656187 -6.459701 0.767876 3.830987 -51.949058 62.693786 14.205395 19.314900 -7.125000 0.000000 0.000000 32.429900 49.566900 4.033800 0.027758 7.710029 5.516789 63.912892 -13.504243 -36.513460 -29.201204 36.278502 -12.909492 1.151738 -3.371368 -97.974455 -63.097137 6.685780 -15.404700 7.125000 0.000000 0.000000 -21.654300 -12.877600 -17.620200 
